<?xml version="1.0" standalone="no"?>
<!DOCTYPE svg PUBLIC "-//W3C//DTD SVG 20010904//EN"
 "http://www.w3.org/TR/2001/REC-SVG-20010904/DTD/svg10.dtd">
<svg version="1.0" xmlns="http://www.w3.org/2000/svg"
 width="1540.000000pt" height="1134.000000pt" viewBox="0 0 1540.000000 1134.000000"
 preserveAspectRatio="xMidYMid meet">

<g transform="translate(0.000000,1134.000000) scale(0.100000,-0.100000)"
fill="#000000" stroke="none">
<path d="M7850 10565 l0 -85 30 0 30 0 0 85 0 85 -30 0 -30 0 0 -85z"/>
<path d="M7617 10413 c-4 -3 -7 -19 -7 -35 l0 -28 90 0 90 0 0 35 0 35 -83 0
c-46 0 -87 -3 -90 -7z"/>
<path d="M7970 10385 l0 -35 90 0 90 0 0 35 0 35 -90 0 -90 0 0 -35z"/>
<path d="M7850 10205 l0 -85 30 0 30 0 0 85 0 85 -30 0 -30 0 0 -85z"/>
<path d="M8055 8954 c-75 -11 -186 -38 -245 -61 -199 -74 -370 -250 -451 -462
-21 -55 -32 -68 -79 -101 -220 -152 -341 -391 -403 -795 l-12 -80 -344 -3
c-230 -1 -349 -6 -357 -13 -10 -8 -14 -57 -16 -192 l-3 -181 -165 -66 c-91
-36 -173 -70 -182 -76 -16 -9 -18 -72 -20 -964 l-3 -955 -37 -83 c-51 -117
-94 -184 -165 -262 -77 -83 -189 -161 -304 -212 -110 -48 -254 -86 -277 -72
-25 14 -62 6 -55 -12 4 -10 -2 -14 -21 -14 -20 0 -26 -5 -26 -21 0 -20 3 -21
63 -14 226 26 461 132 616 279 59 56 150 180 181 245 l25 54 5 -1284 5 -1284
803 -3 802 -2 0 -475 c0 -468 0 -475 20 -475 20 0 20 7 20 475 l0 475 375 0
375 0 0 -495 c0 -488 0 -495 20 -495 20 0 20 7 20 495 l0 495 802 2 802 3 51
115 51 115 79 28 c44 15 100 36 125 45 l45 18 3 778 2 778 47 -63 c25 -35 66
-87 91 -114 l44 -51 -1 -154 c0 -84 -3 -173 -7 -197 -6 -41 -5 -43 18 -43 23
0 26 5 31 54 3 30 3 107 0 170 -4 66 -2 116 3 116 5 0 32 -21 59 -47 81 -75
153 -126 170 -119 24 9 18 20 -35 60 -120 91 -302 286 -384 409 l-36 54 0
1575 c0 1211 -3 1577 -12 1586 -9 9 -125 12 -458 12 l-447 0 -6 218 c-22 790
-228 1152 -722 1268 -68 16 -407 29 -480 18z m410 -49 c405 -70 616 -298 703
-760 27 -140 52 -421 52 -575 l0 -120 -178 0 -178 0 -11 103 c-27 236 -107
467 -208 603 -88 116 -215 209 -355 257 -145 49 -221 60 -425 60 -198 0 -265
-9 -403 -54 -35 -12 -65 -19 -68 -16 -9 9 83 174 131 236 79 100 226 198 358
236 158 46 411 59 582 30z m-402 -481 c298 -43 486 -165 610 -394 63 -118 126
-343 143 -512 l7 -68 -782 0 -781 0 0 113 c0 208 41 536 87 706 20 72 35 83
158 120 164 50 367 62 558 35z m-772 -204 c-29 -116 -60 -351 -66 -505 -3 -77
-8 -168 -11 -202 l-6 -63 -149 0 -150 0 7 53 c21 173 85 402 146 517 45 87
112 170 180 227 35 28 64 51 65 49 1 -1 -6 -35 -16 -76z m-434 -863 c-4 -28
-10 -136 -13 -240 l-7 -187 -451 0 c-247 0 -446 4 -441 8 6 5 177 75 382 156
205 82 380 154 390 161 12 9 15 17 8 24 -5 5 -89 33 -185 61 -96 29 -179 56
-184 61 -6 5 95 9 248 9 l259 0 -6 -53z m1976 -44 c4 -54 10 -162 14 -240 l6
-143 -986 0 -987 0 0 78 c0 94 18 360 26 384 5 17 54 18 963 18 l958 0 6 -97z
m1162 88 c-6 -5 -97 -37 -204 -72 -106 -35 -195 -69 -198 -76 -4 -11 27 -71
96 -183 15 -25 40 -66 55 -92 l28 -48 -440 0 -439 0 -7 208 c-4 114 -9 222
-12 240 l-6 32 568 0 c328 0 564 -4 559 -9z m-3670 -40 c55 -16 147 -44 203
-61 57 -17 101 -34 97 -38 -3 -3 -25 -14 -48 -23 -23 -9 -115 -46 -205 -83
-90 -36 -165 -66 -168 -66 -2 0 -4 70 -4 155 0 119 3 153 13 150 6 -2 57 -17
112 -34z m3805 -1478 l-1 -1518 -31 60 c-57 109 -110 270 -132 398 -7 37 -29
50 -39 23 -9 -22 28 -182 61 -271 41 -108 67 -166 108 -235 l34 -58 0 -805 0
-805 -97 -35 c-54 -19 -108 -38 -119 -41 -14 -4 -32 -29 -52 -74 l-30 -67 -1
2230 -1 2230 -90 153 c-50 84 -90 157 -90 162 0 4 107 44 238 88 130 44 238
80 240 81 1 1 2 -682 2 -1516z m-3292 739 l2 -262 -22 -9 c-29 -11 -64 -49
-73 -79 -9 -32 12 -88 42 -112 40 -31 112 -28 145 8 52 55 40 146 -23 174
l-29 13 2 265 3 265 980 0 980 0 3 -262 2 -262 -29 -16 c-59 -30 -78 -94 -46
-155 20 -38 43 -50 97 -50 46 1 64 10 91 50 34 50 6 142 -48 156 l-25 6 2 267
3 266 445 0 445 0 3 -2262 2 -2263 -1980 0 -1980 0 0 2265 0 2265 503 -2 502
-3 3 -263z m58 -325 c49 -42 24 -117 -39 -117 -66 0 -93 78 -41 119 34 27 47
26 80 -2z m2004 8 c65 -34 42 -124 -32 -125 -75 -1 -91 91 -23 128 25 14 21
15 55 -3z"/>
<path d="M6935 5058 c-77 -44 -49 -158 38 -158 52 0 87 32 87 81 0 70 -66 111
-125 77z"/>
<path d="M8530 4985 c-72 -77 30 -190 113 -125 30 24 40 60 27 96 -15 37 -38
53 -81 54 -25 0 -42 -7 -59 -25z"/>
<path d="M7675 4157 c-101 -40 -175 -117 -205 -214 -23 -76 -25 -99 -7 -106
23 -9 34 6 40 56 32 234 337 322 494 143 37 -42 70 -122 75 -181 2 -19 9 -30
18 -30 12 0 15 13 14 60 -2 108 -73 208 -184 259 -45 21 -69 26 -135 25 -44 0
-93 -6 -110 -12z"/>
<path d="M6013 3903 c-20 -7 -19 -659 1 -666 33 -13 36 14 36 334 0 323 -2
344 -37 332z"/>
<path d="M6007 2953 c-4 -3 -7 -64 -7 -135 0 -128 0 -129 23 -126 21 3 22 7
25 122 2 78 -1 123 -9 132 -13 15 -22 18 -32 7z"/>
<path d="M6210 2575 c0 -8 10 -17 23 -20 12 -3 161 -4 332 -3 286 3 310 4 313
21 3 16 -18 17 -332 17 -290 0 -336 -2 -336 -15z"/>
<path d="M4840 8065 l0 -85 35 0 35 0 0 85 0 85 -35 0 -35 0 0 -85z"/>
<path d="M4610 7885 l0 -35 85 0 85 0 0 35 0 35 -85 0 -85 0 0 -35z"/>
<path d="M4970 7885 l0 -35 85 0 85 0 0 35 0 35 -85 0 -85 0 0 -35z"/>
<path d="M4840 7705 l0 -85 35 0 35 0 0 85 0 85 -35 0 -35 0 0 -85z"/>
<path d="M10360 5731 c0 -565 2 -670 14 -674 8 -3 17 -3 20 0 3 4 6 307 6 675
0 661 0 668 -20 668 -20 0 -20 -7 -20 -669z"/>
<path d="M11620 6120 l0 -90 35 0 35 0 0 90 0 90 -35 0 -35 0 0 -90z"/>
<path d="M11390 5945 l0 -35 85 0 85 0 0 35 0 35 -85 0 -85 0 0 -35z"/>
<path d="M11760 5945 l0 -35 85 0 85 0 0 35 0 35 -85 0 -85 0 0 -35z"/>
<path d="M11620 5755 l0 -85 35 0 35 0 0 85 0 85 -35 0 -35 0 0 -85z"/>
<path d="M10373 4903 c-20 -7 -19 -659 1 -666 8 -3 17 -3 20 0 9 9 7 661 -1
666 -5 2 -14 2 -20 0z"/>
</g>
</svg>
